<?xml version="1.0" standalone="no"?>
<!DOCTYPE svg PUBLIC "-//W3C//DTD SVG 20010904//EN"
 "http://www.w3.org/TR/2001/REC-SVG-20010904/DTD/svg10.dtd">
<svg version="1.0" xmlns="http://www.w3.org/2000/svg"
 width="2000.000000pt" height="2000.000000pt" viewBox="0 0 2000.000000 2000.000000"
 preserveAspectRatio="xMidYMid meet">
<metadata>
Created by potrace 1.15, written by Peter Selinger 2001-2017
</metadata>
<g transform="translate(0.000000,2000.000000) scale(0.100000,-0.100000)"
fill="#000000" stroke="none">
<path d="M7890 18097 c-14 -7 -822 -473 -1797 -1036 -1464 -845 -1773 -1027
-1783 -1050 -16 -39 -3 -78 34 -105 17 -13 893 -521 1946 -1128 1053 -608
3630 -2095 5725 -3305 2096 -1210 3825 -2208 3842 -2217 43 -22 75 -20 107 5
l26 20 0 2088 0 2088 -22 20 c-37 33 -8000 4626 -8028 4630 -14 2 -36 -2 -50
-10z m3815 -2745 l3770 -2177 3 -1553 c1 -853 0 -1552 -2 -1552 -2 0 -1657
954 -3677 2121 -2021 1166 -4323 2495 -5115 2952 -1328 767 -1440 833 -1420
845 49 31 2661 1540 2666 1540 3 1 1702 -979 3775 -2176z"/>
<path d="M4053 15540 c-12 -5 -26 -18 -32 -29 -17 -31 -15 -4172 2 -4193 6 -9
816 -480 1798 -1047 1339 -772 1795 -1031 1818 -1031 21 0 41 9 56 25 l25 24
0 2079 c0 1966 -1 2081 -17 2100 -24 28 -3566 2071 -3601 2077 -15 2 -37 0
-49 -5z m1837 -1608 l1315 -760 3 -1551 c1 -853 -1 -1551 -4 -1551 -4 0 -609
348 -1345 773 l-1339 772 0 1553 0 1553 28 -15 c15 -8 619 -357 1342 -774z"/>
<path d="M10255 9910 c-978 -565 -1787 -1038 -1797 -1050 -25 -30 -23 -74 5
-104 17 -19 3412 -1986 3556 -2060 18 -10 46 -16 61 -14 28 4 3561 2038 3595
2070 13 12 20 31 20 58 0 27 -7 46 -20 59 -11 10 -820 480 -1798 1045 -1369
790 -1786 1026 -1810 1025 -23 0 -517 -280 -1812 -1029z m3164 -326 c732 -422
1331 -771 1331 -774 0 -3 -603 -353 -1340 -779 l-1341 -773 -67 39 c-2068
1193 -2612 1509 -2610 1515 6 16 2664 1546 2680 1543 9 -1 616 -348 1347 -771z"/>
<path d="M4036 10749 l-26 -20 0 -2088 0 -2088 23 -20 c12 -11 1818 -1057
4012 -2324 3315 -1914 3996 -2304 4025 -2303 27 0 421 224 1820 1032 1904
1099 1823 1049 1806 1116 -3 14 -21 36 -39 49 -23 18 -10512 6077 -11421 6599
-66 38 -132 68 -146 68 -15 0 -39 -9 -54 -21z m5560 -3735 c2787 -1609 5089
-2938 5116 -2953 l48 -28 -1346 -776 -1345 -777 -3772 2178 -3772 2178 -3
1552 c-1 854 0 1552 2 1552 2 0 2285 -1317 5072 -2926z"/>
<path d="M4032 5967 l-22 -23 0 -1908 c0 -1243 3 -1914 10 -1926 5 -10 26 -24
45 -30 31 -10 41 -9 76 10 110 57 3237 1866 3257 1883 27 25 30 86 5 115 -10
11 -752 443 -1649 961 -1311 757 -1638 941 -1666 941 -23 0 -42 -8 -56 -23z
m1475 -1369 c535 -309 970 -565 966 -569 -5 -4 -442 -258 -973 -564 -531 -307
-968 -559 -972 -562 -5 -2 -8 505 -8 1126 0 622 3 1131 7 1131 3 0 444 -253
980 -562z"/>
</g>
</svg>
